<?xml version="1.0" standalone="no"?>
<!DOCTYPE svg PUBLIC "-//W3C//DTD SVG 20010904//EN"
 "http://www.w3.org/TR/2001/REC-SVG-20010904/DTD/svg10.dtd">
<svg version="1.0" xmlns="http://www.w3.org/2000/svg"
 width="416.000000pt" height="416.000000pt" viewBox="0 0 416.000000 416.000000"
 preserveAspectRatio="xMidYMid meet">
<metadata>
Created by potrace 1.11, written by Peter Selinger 2001-2013
</metadata>
<g transform="translate(0.000000,416.000000) scale(0.100000,-0.100000)"
fill="#000000" stroke="none">
<path d="M1925 3920 c-6 -10 31 -563 40 -606 5 -24 50 -38 63 -20 5 6 3 86 -4
181 -7 94 -17 230 -23 302 -5 73 -12 137 -16 143 -8 13 -52 13 -60 0z"/>
<path d="M2350 3710 c-64 -88 -151 -235 -171 -293 -12 -33 -11 -39 1 -48 33
-21 51 -4 106 99 30 57 61 110 69 118 8 9 15 19 15 22 0 4 20 34 45 67 46 62
54 88 33 102 -29 17 -42 8 -98 -67z"/>
<path d="M1638 3759 c-25 -14 -23 -25 28 -134 25 -55 66 -153 91 -219 24 -67
51 -127 58 -135 17 -18 55 -5 55 19 0 21 -73 220 -115 315 -53 118 -59 130
-73 148 -17 20 -21 20 -44 6z"/>
<path d="M2427 3164 c-3 -3 -23 -7 -45 -8 -34 -1 -45 -8 -86 -56 -65 -76 -128
-205 -134 -274 -10 -122 55 -298 147 -398 59 -64 144 -111 223 -122 155 -22
374 94 410 217 16 58 14 171 -6 237 -21 72 -67 180 -86 204 -49 63 -84 95
-127 118 -57 31 -183 68 -233 68 -20 0 -41 5 -46 10 -6 6 -13 8 -17 4z m153
-106 c138 -36 205 -100 265 -253 20 -50 29 -95 33 -157 4 -83 3 -90 -22 -128
-54 -82 -175 -143 -284 -143 -173 1 -320 181 -330 405 -4 78 -1 91 23 139 36
72 94 149 119 159 28 11 105 2 196 -22z"/>
<path d="M2549 2864 c-19 -23 -15 -72 7 -89 24 -18 26 -18 47 -2 26 19 29 62
6 83 -26 23 -45 26 -60 8z"/>
<path d="M1228 3119 c-31 -4 -73 -15 -94 -24 -21 -9 -50 -13 -64 -10 -33 7
-45 -6 -103 -115 -68 -127 -90 -210 -85 -322 5 -120 35 -184 133 -284 110
-112 206 -141 373 -114 314 50 467 214 423 455 -37 205 -217 382 -421 415 -73
11 -81 11 -162 -1z m266 -105 c196 -96 302 -339 222 -506 -50 -103 -207 -181
-397 -195 -116 -9 -181 20 -270 120 -67 75 -91 129 -97 213 -5 82 12 153 63
253 41 83 56 96 141 127 61 22 82 24 174 21 92 -3 113 -7 164 -33z"/>
<path d="M1237 2652 c-21 -23 -21 -41 -1 -70 29 -42 92 -17 88 35 -3 50 -55
71 -87 35z"/>
<path d="M2201 2289 c-28 -11 -27 -21 22 -139 92 -218 113 -376 97 -710 -23
-483 -44 -536 -228 -575 -155 -32 -263 -12 -308 58 -47 73 -84 247 -85 403 -2
189 16 312 97 666 35 154 36 162 18 175 -38 28 -47 14 -83 -137 -112 -473
-132 -722 -75 -960 54 -225 120 -290 294 -290 251 1 370 74 410 254 15 67 28
249 35 491 7 234 -3 341 -51 506 -26 91 -94 252 -110 262 -5 2 -20 1 -33 -4z"/>
<path d="M3440 1733 c-49 -100 -78 -207 -66 -239 3 -7 1 -16 -4 -19 -6 -4 -10
-15 -10 -25 0 -36 -67 -147 -168 -279 -56 -72 -120 -166 -142 -207 -37 -67
-60 -86 -60 -50 0 7 -32 61 -71 120 -83 124 -95 129 -171 69 -26 -21 -62 -47
-80 -58 -30 -19 -33 -25 -32 -66 0 -38 8 -57 46 -110 46 -64 74 -93 122 -124
14 -10 26 -21 26 -25 0 -15 -159 -139 -216 -168 -69 -35 -193 -72 -339 -102
-295 -61 -525 -22 -858 147 -275 139 -362 212 -500 421 -96 147 -131 201 -140
222 -4 8 -18 33 -32 55 -14 22 -34 56 -44 75 -11 19 -31 55 -45 80 -29 50
-107 209 -111 225 -3 18 -28 65 -34 66 -3 0 -14 2 -23 4 -9 2 -22 -3 -29 -11
-32 -38 166 -406 432 -805 31 -46 84 -112 118 -146 53 -54 171 -144 236 -179
201 -109 281 -146 410 -189 158 -52 203 -60 365 -60 191 0 267 13 500 87 142
46 206 81 305 170 17 14 40 35 52 45 12 10 48 41 81 68 55 47 111 122 178 240
16 28 32 55 36 60 121 151 214 291 237 354 11 31 25 92 32 136 8 57 22 102 51
160 63 124 66 151 20 160 -18 3 -28 -11 -72 -102z m-587 -725 c36 -54 80 -136
91 -174 4 -14 -1 -27 -19 -44 l-24 -23 -38 25 c-53 35 -109 94 -138 144 -14
23 -25 45 -25 47 0 3 13 10 29 17 16 6 39 22 52 36 12 13 25 24 29 24 4 0 23
-24 43 -52z"/>
<path d="M4154 1480 c0 -69 1 -97 3 -62 2 34 2 90 0 125 -2 34 -3 6 -3 -63z"/>
</g>
</svg>
